<?xml version="1.0" encoding="utf-8"?>
<!-- Generator: Adobe Illustrator 28.3.0, SVG Export Plug-In . SVG Version: 6.00 Build 0)  -->
<svg version="1.1" xmlns="http://www.w3.org/2000/svg" xmlns:xlink="http://www.w3.org/1999/xlink" x="0px" y="0px"
	 viewBox="0 0 10 10" style="enable-background:new 0 0 10 10;" xml:space="preserve">
<style type="text/css">
	.st0{fill:#21409A;}
	.st1{fill:#FFFFFF;}
</style>
<g id="Layer_1">
</g>
<g id="Layer_2">
	<polygon class="st0" points="1.7,0 0.8,0.8 0.8,6.9 2,7.9 0.2,9.7 0.2,10 1.6,10 2.9,8.6 7.2,8.6 8.4,10 9.8,10 9.8,9.6 8,7.9 
		9.2,7 9.2,0.8 8.4,0 	"/>
	<polygon class="st1" points="3.9,0.4 3.6,0.8 6.3,0.8 6.1,0.4 	"/>
	<polygon class="st1" points="2.7,1.5 2,1.8 2,3.3 2.4,3.6 7.4,3.6 7.9,3.3 7.9,1.8 7.3,1.5 	"/>
	<polyline class="st1" points="3.3,5.9 3.3,6.7 2.8,6.9 2,6.3 2.3,5.9 3.3,5.9 	"/>
	<polyline class="st1" points="6.6,5.9 6.6,6.7 7.2,6.9 7.9,6.3 7.6,5.9 6.6,5.9 	"/>
</g>
</svg>
