<?xml version="1.0" encoding="utf-8"?>
<!-- Generator: Adobe Illustrator 28.3.0, SVG Export Plug-In . SVG Version: 6.00 Build 0)  -->
<svg version="1.1" id="Layer_1" xmlns="http://www.w3.org/2000/svg" xmlns:xlink="http://www.w3.org/1999/xlink" x="0px" y="0px"
	 viewBox="0 0 40 40" style="enable-background:new 0 0 40 40;" xml:space="preserve">
<style type="text/css">
	.st0{fill:#FFFFFF;}
	.st1{fill:#231F20;}
</style>
<g>
	<path class="st0" d="M20,39.7C9.2,39.7,0.4,30.8,0.4,20S9.2,0.4,20,0.4S39.7,9.2,39.7,20S30.8,39.7,20,39.7z"/>
	<path class="st1" d="M20,0.7c10.6,0,19.3,8.7,19.3,19.3S30.6,39.3,20,39.3S0.7,30.6,0.7,20S9.4,0.7,20,0.7 M20,0C9,0,0,9,0,20
		s9,20,20,20s20-9,20-20S31,0,20,0L20,0z"/>
</g>
<path class="st1" d="M22.6,15.8c0,0.6-0.1,1.1-0.2,1.7c-0.1,0.7-0.2,1.5-0.4,2.2c0.9-1,1.4-1.4,2.3-2.4c0.1-0.1,0.5-0.4,0.5-0.4
	c0.1,0,0.4,0.4,0.3,0.3c-0.1,0,0-0.1,0,0c0.8,2.4,1.3,4.5,1.4,7c0,0.9,0,1.9-0.3,2.7c-0.3,0.8-0.8,1.5-1.4,2.2
	c-0.9,1.1-1.8,2.1-2.8,3.1c2.3-0.9,4.4-2.4,5.8-4.4c1.4-2,2.2-4.5,2-7c-0.1-1-0.3-1.9-0.6-2.9c-0.1-0.4-0.2-0.9-0.4-1.3
	c-0.3-0.5-0.4-0.6-0.6-1.1c1-0.1,1.7-0.3,2.5-0.3c-0.8-2.2-2.8-3.7-4.7-5.1c-0.5-0.4-1-0.7-1.5-1c-0.3-0.2-2-1.2-2.1-0.8
	c0,0.5,0.1,1.8,0.1,2.2C22.9,12.4,22.7,14.1,22.6,15.8z"/>
<path class="st1" d="M17.4,24.2c0-0.6,0.1-1.1,0.2-1.7c0.1-0.7,0.2-1.5,0.4-2.2c-0.9,1-1.4,1.4-2.3,2.4c-0.1,0.1-0.5,0.4-0.5,0.4
	c-0.1,0-0.4-0.4-0.3-0.3c0.1,0,0,0.1,0,0c-0.8-2.4-1.3-4.5-1.4-7c0-0.9,0-1.9,0.3-2.7c0.3-0.8,0.8-1.5,1.4-2.2
	c0.9-1.1,1.8-2.1,2.8-3.1c-2.3,0.9-4.4,2.4-5.8,4.4s-2.2,4.5-2,7c0.1,1,0.3,1.9,0.6,2.9c0.1,0.4,0.2,0.9,0.4,1.3
	c0.3,0.5,0.4,0.6,0.6,1.1c-1,0.1-1.7,0.3-2.5,0.3c0.8,2.2,2.8,3.7,4.7,5.1c0.5,0.4,1,0.7,1.5,1c0.3,0.2,2,1.2,2.1,0.8
	c0-0.5-0.1-1.8-0.1-2.2C17.1,27.6,17.3,25.9,17.4,24.2z"/>
</svg>
